<svg width="15" height="9" viewBox="0 0 15 9" fill="none" xmlns="http://www.w3.org/2000/svg">
<path d="M6.58584 8.43734L0.229843 2.08134C0.0826748 1.93413 0 1.73449 0 1.52634C0 1.31818 0.0826748 1.11855 0.229843 0.971336L0.970842 0.230339C1.11801 0.0834768 1.31743 0.000999451 1.52534 0.000999451C1.73325 0.000999451 1.93267 0.0834768 2.07984 0.230339L7.14384 5.26633L12.2048 0.22934C12.352 0.0824773 12.5514 0 12.7593 0C12.9673 0 13.1667 0.0824773 13.3138 0.22934L14.0548 0.970337C14.202 1.11755 14.2847 1.31718 14.2847 1.52534C14.2847 1.73349 14.202 1.93313 14.0548 2.08034L7.69884 8.43633C7.62596 8.50972 7.5393 8.56799 7.44383 8.60778C7.34837 8.64757 7.24598 8.6681 7.14255 8.66819C7.03912 8.66828 6.9367 8.64793 6.84116 8.60831C6.74562 8.5687 6.65885 8.5106 6.58584 8.43734Z" fill="black"/>
</svg>
